# 3ds Max Wavefront OBJ Exporter v0.97b - (c)2007 guruware
# File Created: 25.10.2021 20:18:01

mtllib Arch (1).mtl

#
# object Arch__1_
#

v  2.5000 0.3000 -0.0000
v  2.4786 0.3000 0.3263
v  2.4786 -0.0500 0.3263
v  2.5000 -0.0500 -0.0000
v  0.9914 0.3000 0.1305
v  1.0000 0.3000 -0.0000
v  1.0000 -0.0500 -0.0000
v  0.9914 -0.0500 0.1305
v  2.4148 0.3000 0.6470
v  2.4148 -0.0500 0.6470
v  0.9659 0.3000 0.2588
v  0.9659 -0.0500 0.2588
v  2.3097 0.3000 0.9567
v  2.3097 -0.0500 0.9567
v  0.9239 0.3000 0.3827
v  0.9239 -0.0500 0.3827
v  2.1651 0.3000 1.2500
v  2.1651 -0.0500 1.2500
v  0.8660 0.3000 0.5000
v  0.8660 -0.0500 0.5000
v  1.9834 0.3000 1.5219
v  1.9834 -0.0500 1.5219
v  0.7934 0.3000 0.6088
v  0.7934 -0.0500 0.6088
v  1.7678 0.3000 1.7678
v  1.7678 -0.0500 1.7678
v  0.7071 0.3000 0.7071
v  0.7071 -0.0500 0.7071
v  1.5219 0.3000 1.9834
v  1.5219 -0.0500 1.9834
v  0.6088 0.3000 0.7934
v  0.6088 -0.0500 0.7934
v  1.2500 0.3000 2.1651
v  1.2500 -0.0500 2.1651
v  0.5000 0.3000 0.8660
v  0.5000 -0.0500 0.8660
# 36 vertices

vn 0.9979 -0.0000 0.0654
vn -0.9979 -0.0000 -0.0654
vn 0.0000 -0.0000 -1.0000
vn 0.9808 -0.0000 0.1951
vn -0.9808 -0.0000 -0.1951
vn 0.9469 -0.0000 0.3214
vn -0.9469 -0.0000 -0.3214
vn 0.8969 -0.0000 0.4423
vn -0.8969 -0.0000 -0.4423
vn 0.8315 -0.0000 0.5556
vn -0.8315 -0.0000 -0.5556
vn 0.7518 -0.0000 0.6593
vn -0.7518 -0.0000 -0.6593
vn 0.6593 -0.0000 0.7518
vn -0.6593 -0.0000 -0.7518
vn 0.5556 -0.0000 0.8315
vn -0.5556 -0.0000 -0.8315
vn -0.8660 -0.0000 0.5000
vn 0.0000 -1.0000 0.0000
vn 0.0000 1.0000 0.0000
# 20 vertex normals

vt 0.0000 0.0000 0.0000
vt 0.0000 0.3270 0.0000
vt -0.3500 0.3270 0.0000
vt -0.3500 0.0000 0.0000
vt 0.0000 0.2289 0.0000
vt 0.0000 0.0981 0.0000
vt 0.3500 0.0981 0.0000
vt 0.3500 0.2289 0.0000
vt 0.0000 0.3500 0.0000
vt -1.5000 0.3500 0.0000
vt -1.5000 0.0000 0.0000
vt 0.0000 0.3242 0.0000
vt 0.0000 0.6512 0.0000
vt -0.3500 0.6512 0.0000
vt -0.3500 0.3242 0.0000
vt 0.0000 0.5531 0.0000
vt 0.0000 0.4223 0.0000
vt 0.3500 0.4223 0.0000
vt 0.3500 0.5531 0.0000
vt 0.0000 0.6401 0.0000
vt 0.0000 0.9671 0.0000
vt -0.3500 0.9671 0.0000
vt -0.3500 0.6401 0.0000
vt 0.0000 0.8690 0.0000
vt 0.0000 0.7382 0.0000
vt 0.3500 0.7382 0.0000
vt 0.3500 0.8690 0.0000
vt 0.0000 0.9422 0.0000
vt 0.0000 1.2692 0.0000
vt -0.3500 1.2692 0.0000
vt -0.3500 0.9422 0.0000
vt 0.0000 1.1711 0.0000
vt 0.0000 1.0403 0.0000
vt 0.3500 1.0403 0.0000
vt 0.3500 1.1711 0.0000
vt 0.0000 1.2254 0.0000
vt 0.0000 1.5524 0.0000
vt -0.3500 1.5524 0.0000
vt -0.3500 1.2254 0.0000
vt 0.0000 1.4543 0.0000
vt 0.0000 1.3235 0.0000
vt 0.3500 1.3235 0.0000
vt 0.3500 1.4543 0.0000
vt 0.0000 1.4849 0.0000
vt 0.0000 1.8119 0.0000
vt -0.3500 1.8119 0.0000
vt -0.3500 1.4849 0.0000
vt 0.0000 1.7138 0.0000
vt 0.0000 1.5830 0.0000
vt 0.3500 1.5830 0.0000
vt 0.3500 1.7138 0.0000
vt 1.7161 0.0000 0.0000
vt 2.0431 0.0000 0.0000
vt 2.0431 0.3500 0.0000
vt 1.7161 0.3500 0.0000
vt -1.9450 0.0000 0.0000
vt -1.8142 0.0000 0.0000
vt -1.8142 0.3500 0.0000
vt -1.9450 0.3500 0.0000
vt 1.9152 0.0000 0.0000
vt 2.2422 0.0000 0.0000
vt 2.2422 0.3500 0.0000
vt 1.9152 0.3500 0.0000
vt -2.1441 0.0000 0.0000
vt -2.0133 0.0000 0.0000
vt -2.0133 0.3500 0.0000
vt -2.1441 0.3500 0.0000
vt 0.3500 -0.2500 0.0000
vt 0.3500 1.2500 0.0000
vt 0.0000 1.2500 0.0000
vt 0.0000 -0.2500 0.0000
vt -0.0214 0.3263 0.0000
vt -1.5086 0.1305 0.0000
vt 0.0214 0.3263 0.0000
vt 1.5000 0.0000 0.0000
vt 1.5086 0.1305 0.0000
vt -0.0852 0.6470 0.0000
vt -1.5341 0.2588 0.0000
vt 0.0852 0.6470 0.0000
vt 1.5341 0.2588 0.0000
vt -0.1903 0.9567 0.0000
vt -1.5761 0.3827 0.0000
vt 0.1903 0.9567 0.0000
vt 1.5761 0.3827 0.0000
vt -0.3349 1.2500 0.0000
vt -1.6340 0.5000 0.0000
vt 0.3349 1.2500 0.0000
vt 1.6340 0.5000 0.0000
vt -0.5166 1.5219 0.0000
vt -1.7066 0.6088 0.0000
vt 0.5166 1.5219 0.0000
vt 1.7066 0.6088 0.0000
vt -0.7322 1.7678 0.0000
vt -1.7929 0.7071 0.0000
vt 0.7322 1.7678 0.0000
vt 1.7929 0.7071 0.0000
vt -0.9781 1.9834 0.0000
vt -1.8912 0.7934 0.0000
vt 0.9781 1.9834 0.0000
vt 1.8912 0.7934 0.0000
vt -1.2500 2.1651 0.0000
vt -2.0000 0.8660 0.0000
vt 1.2500 2.1651 0.0000
vt 2.0000 0.8660 0.0000
# 104 texture coords

o Arch__1_
g Arch__1_
usemtl ProBuilderDefault
s 1
f 1/1/1 2/2/1 3/3/1 4/4/1 
f 5/5/2 6/6/2 7/7/2 8/8/2 
f 4/9/3 7/10/3 6/11/3 1/1/3 
f 2/12/4 9/13/4 10/14/4 3/15/4 
f 11/16/5 5/17/5 8/18/5 12/19/5 
f 9/20/6 13/21/6 14/22/6 10/23/6 
f 15/24/7 11/25/7 12/26/7 16/27/7 
f 13/28/8 17/29/8 18/30/8 14/31/8 
f 19/32/9 15/33/9 16/34/9 20/35/9 
f 17/36/10 21/37/10 22/38/10 18/39/10 
f 23/40/11 19/41/11 20/42/11 24/43/11 
f 21/44/12 25/45/12 26/46/12 22/47/12 
f 27/48/13 23/49/13 24/50/13 28/51/13 
f 25/52/14 29/53/14 30/54/14 26/55/14 
f 31/56/15 27/57/15 28/58/15 32/59/15 
f 29/60/16 33/61/16 34/62/16 30/63/16 
f 35/64/17 31/65/17 32/66/17 36/67/17 
f 36/68/18 34/69/18 33/70/18 35/71/18 
f 4/1/19 3/72/19 8/73/19 7/11/19 
f 2/74/20 1/1/20 6/75/20 5/76/20 
f 3/72/19 10/77/19 12/78/19 8/73/19 
f 9/79/20 2/74/20 5/76/20 11/80/20 
f 10/77/19 14/81/19 16/82/19 12/78/19 
f 13/83/20 9/79/20 11/80/20 15/84/20 
f 14/81/19 18/85/19 20/86/19 16/82/19 
f 17/87/20 13/83/20 15/84/20 19/88/20 
f 18/85/19 22/89/19 24/90/19 20/86/19 
f 21/91/20 17/87/20 19/88/20 23/92/20 
f 22/89/19 26/93/19 28/94/19 24/90/19 
f 25/95/20 21/91/20 23/92/20 27/96/20 
f 26/93/19 30/97/19 32/98/19 28/94/19 
f 29/99/20 25/95/20 27/96/20 31/100/20 
f 30/97/19 34/101/19 36/102/19 32/98/19 
f 33/103/20 29/99/20 31/100/20 35/104/20 
# 34 polygons

